<svg xmlns="http://www.w3.org/2000/svg" width="12" height="16.5" viewBox="0 0 8 11" fill="none" class="qo bi">
    <path fill-rule="evenodd" clip-rule="evenodd"
        d="M2.18 2.6a1.82 1.82 0 0 1 3.64 0v2.07H2.18V2.6zm4.37 2.07V2.6C6.55 1.17 5.4 0 4 0a2.58 2.58 0 0 0-2.55 2.6v2.07c-.39 0-.75.17-1.03.46-.27.3-.42.7-.42 1.12v3.17a1.7 1.7 0 0 0 .42 1.12c.14.14.3.26.47.34.18.08.37.12.56.12h5.1c.39 0 .75-.17 1.03-.47.27-.3.42-.7.42-1.11V6.25a1.7 1.7 0 0 0-.42-1.12c-.14-.14-.3-.26-.47-.34a1.35 1.35 0 0 0-.56-.12z"
        fill="#757575"></path>
</svg>